<svg aria-hidden="true" style="position:absolute;width:0;height:0;overflow:hidden" xmlns="http://www.w3.org/2000/svg"><defs><symbol id="icon-Grupo-4" viewBox="0 0 72 32"><path fill="#f5f4fa" style="fill:var(--color1, #f5f4fa)" d="M1.067 0h69.867c.589 0 1.067.478 1.067 1.067v29.867c0 .589-.478 1.067-1.067 1.067H1.067A1.067 1.067 0 0 1 0 30.934V1.067C0 .478.478 0 1.067 0z"/><path fill="#2196f3" style="fill:var(--color2, #2196f3)" d="M45.318 9.306a.315.315 0 0 0-.251-.212l-1.114-.162-.499-1.01c-.105-.213-.453-.213-.558 0l-.499 1.01-1.115.162a.311.311 0 0 0-.172.531l.807.786-.19 1.11a.311.311 0 0 0 .451.328l.997-.524.997.524a.311.311 0 0 0 .451-.327l-.19-1.11.807-.786a.312.312 0 0 0 .079-.319zm-1.436.774a.31.31 0 0 0-.089.275l.111.65-.583-.307a.308.308 0 0 0-.29 0l-.583.307.111-.65a.309.309 0 0 0-.089-.275l-.473-.46.653-.095a.31.31 0 0 0 .234-.17l.292-.591.292.591a.31.31 0 0 0 .234.17l.653.095-.472.46zM41.911 18.638h-.622v.622h.622v-.622zM41.911 19.882h-.622v.622h.622v-.622zM42.533 19.26h-.622v.622h.622v-.622zM41.289 19.26h-.622v.622h.622v-.622zM39.733 22.06h-.622v.622h.622v-.622zM39.733 23.305h-.622v.622h.622v-.622zM40.356 22.682h-.622v.622h.622v-.622zM39.111 22.682h-.622v.622h.622v-.622zM36 20.816h-.622v.622H36v-.622zM36 22.06h-.622v.622H36v-.622zM36.622 21.438H36v.622h.622v-.622zM35.378 21.438h-.622v.622h.622v-.622zM30.089 10.238h-.622v.622h.622v-.622zM30.089 11.482h-.622v.622h.622v-.622zM30.711 10.86h-.622v.622h.622v-.622zM29.467 10.86h-.622v.622h.622v-.622z"/><path fill="#212121" style="fill:var(--color3, #212121)" d="M41.084 14.926a1.036 1.036 0 0 0-.693-.411 1.038 1.038 0 0 0-.782.205l-.73.56-1.107.827-.792-.316a4.046 4.046 0 0 0 2.4-3.687c0-2.23-1.822-4.044-4.061-4.044s-4.061 1.814-4.061 4.044c0 .808.242 1.56.653 2.192l-1.612-.014h-.003c-.005 0-.009.002-.014.003a.289.289 0 0 0-.091.018c-.007.003-.015.004-.022.008l-.011.004-1.886.931h-.001l-1.104.531a1.039 1.039 0 0 0 .544 1.927c.169 0 .337-.041.49-.123l.81-.431 1.321-.682.791-.005-3.174 3.159-.001.001-.781.778a.967.967 0 0 0 0 1.375.98.98 0 0 0 1.377 0l.767-.764 1.015-.758.525.523-1.027 1.023-.001.001-.781.778a.967.967 0 0 0 0 1.375.979.979 0 0 0 1.377 0l2.031-2.022.001-.001.589-.583-.002-.002c.004-.004.009-.005.013-.009l3.013-3.301 2.025.288a.312.312 0 0 0 .153-.019l.029-.014c.011-.006.023-.009.034-.016l1.874-1.244c.007-.005.011-.012.017-.017.007-.006.017-.008.024-.015l.742-.695c.386-.362.439-.954.124-1.378zm-13.175 2.107c-.101.054-.216.065-.326.03a.417.417 0 0 1-.124-.735l.766-.369.185.539.077.226-.579.308zm2.04-1.067-.903.467-.149-.436-.107-.313 1.182-.584-.023.866zm8.808-3.862c0 .536-.128 1.041-.349 1.493l-2.439-1.108a1.086 1.086 0 0 0-.46-.81l.854-2.835a3.429 3.429 0 0 1 2.394 3.26zm-6.876 0a3.434 3.434 0 0 1 3.873-3.392l-.835 2.773-.033-.003c-.602 0-1.093.488-1.093 1.089s.49 1.089 1.093 1.089c.405 0 .755-.224.944-.551l2.253 1.024a3.436 3.436 0 0 1-2.763 1.394 3.434 3.434 0 0 1-3.438-3.422zm3.474.467a.47.47 0 0 1-.94 0c0-.258.211-.467.47-.467s.47.209.47.467zm-7.25 8.764a.354.354 0 0 1-.498 0 .348.348 0 0 1 0-.493l.561-.559.497.494-.559.557zm1.874 2.178a.354.354 0 0 1-.602-.247c0-.093.036-.18.103-.246l.562-.559.497.494-.56.557zm2.031-2.023-.001.001-1.03 1.027-.497-.494L31.511 21l.001-.001a.292.292 0 0 0 .052-.079c.004-.008.012-.015.015-.023.01-.024.011-.05.015-.075.002-.014.008-.028.008-.042 0-.021-.007-.041-.012-.062-.004-.019-.004-.038-.011-.056a.318.318 0 0 0-.053-.08c-.006-.007-.008-.016-.015-.022h-.001l-.001-.001-.937-.933c-.01-.01-.023-.014-.034-.022-.017-.013-.033-.025-.051-.034s-.036-.014-.055-.019a.304.304 0 0 0-.06-.012c-.019-.001-.037.001-.056.003-.021.002-.04.005-.061.012s-.037.016-.055.026c-.012.007-.025.009-.035.017l-1.035.772-.525-.523 1.399-1.392 2.543 2.502-.541.536zm3.978-4.093c-.009-.001-.017.002-.026.002a.302.302 0 0 0-.174.043.343.343 0 0 0-.049.036c-.007.006-.017.01-.023.017l-2.741 3.002-2.525-2.483 1.653-1.644a.311.311 0 0 0-.221-.531l-1.294.008.016-.938 1.811.016a4.052 4.052 0 0 0 3.652 1.153.27.27 0 0 0 .075.049l1.406.56.089.442.104.516-1.752-.249zm2.357.103-.182-.909.844-.63.552.733-1.213.806zm2.19-1.651-.489.458-.543-.721.485-.372a.425.425 0 0 1 .597.083.417.417 0 0 1-.05.553z"/><path fill="#212121" style="fill:var(--color3, #212121)" d="m34.601 17.484-1.25-1.244a.31.31 0 0 0-.439 0l-1.25 1.244a.315.315 0 0 0 0 .442l1.25 1.244a.307.307 0 0 0 .438 0l1.25-1.244a.312.312 0 0 0 0-.442zm-1.469 1.026-.809-.805.809-.805.809.805-.809.805zM36.679 9.625l-.15.604c.041.01 1.014.264 1.014 1.254h.622c0-1.177-.972-1.73-1.486-1.858zM38.165 12.104h-.622v.622h.622v-.622z"/></symbol><symbol id="icon-Grupo-3" viewBox="0 0 72 32"><path fill="#f5f4fa" style="fill:var(--color1, #f5f4fa)" d="M1.067 0h69.867c.589 0 1.067.478 1.067 1.067v29.867c0 .589-.478 1.067-1.067 1.067H1.067A1.067 1.067 0 0 1 0 30.934V1.067C0 .478.478 0 1.067 0z"/><path fill="#2196f3" style="fill:var(--color2, #2196f3)" d="M35.373 15.396h.622v2.799h-.622v-2.799zM37.861 16.64h.622v1.555h-.622V16.64zM32.886 17.573h.622v.622h-.622v-.622zM31.02 17.262h.622v.933h-.622v-.933z"/><path fill="#212121" style="fill:var(--color3, #212121)" d="M27.599 23.17h14.926a.933.933 0 0 0 .933-.933v-1.244a.933.933 0 0 0-.933-.933h-.311v-7.754l1.766-1.673a.938.938 0 1 0-.437-.445l-1.331 1.262v-.717a.933.933 0 0 0-.933-.933H28.841a.933.933 0 0 0-.933.933v9.328h-.311a.933.933 0 0 0-.933.933v1.244c0 .515.418.933.933.933zM44.391 9.488a.31.31 0 1 1 0 .621.31.31 0 0 1 0-.621zm-15.859 1.244a.31.31 0 0 1 .311-.311h12.438a.31.31 0 0 1 .311.311v1.306l-.622.591v-1.275a.31.31 0 0 0-.311-.311H29.465a.31.31 0 0 0-.311.311v7.774a.31.31 0 0 0 .311.311h11.194a.311.311 0 0 0 .311-.311v-5.643l.622-.589v7.165h-13.06v-9.328zm2.799 4.042a.933.933 0 1 0 .646 1.603l1.081.542a.31.31 0 0 0 .371-.072l2.298-2.585 2.259 1.692a.31.31 0 0 0 .4-.023l1.963-1.859v4.743H29.777v-7.152h10.572v1.552l-2.2 2.083-2.278-1.707a.311.311 0 0 0-.419.042l-2.329 2.621-.871-.435c.006-.037.01-.075.012-.113a.933.933 0 0 0-.933-.933zm.311.933a.31.31 0 1 1-.621 0 .31.31 0 0 1 .621 0zm1.865 4.975h3.11v.311a.31.31 0 0 1-.311.311h-2.488a.31.31 0 0 1-.311-.311v-.311zm-6.218.311a.31.31 0 0 1 .311-.311h5.286v.311c0 .515.418.933.933.933h2.488a.933.933 0 0 0 .933-.933v-.311h5.286a.31.31 0 0 1 .311.311v1.244a.31.31 0 0 1-.311.311H27.6a.31.31 0 0 1-.311-.311v-1.244z"/></symbol><symbol id="icon-Group-2" viewBox="0 0 72 32"><path fill="#f5f4fa" style="fill:var(--color1, #f5f4fa)" d="M1.067 0h69.867c.589 0 1.067.478 1.067 1.067v29.867c0 .589-.478 1.067-1.067 1.067H1.067A1.067 1.067 0 0 1 0 30.934V1.067C0 .478.478 0 1.067 0z"/><path fill="#212121" style="fill:var(--color3, #212121)" d="M44.923 15.592c-.001-4.931-3.999-8.927-8.93-8.926a8.928 8.928 0 0 0-2.714 17.433.394.394 0 0 0 .309-.038.37.37 0 0 0 .165-.208l2.255-7.146a1.116 1.116 0 1 0-.49-2.12l-2.978-2.979a.372.372 0 0 0-.526.526l2.977 2.98a1.095 1.095 0 0 0 .313 1.347l-2.148 6.809A8.192 8.192 0 1 1 38.82 7.897a8.192 8.192 0 0 1 .502 15.169l-.232-1.093a.372.372 0 0 0-.612-.201L36.24 23.77a.372.372 0 0 0 .134.632l2.858.912a.373.373 0 0 0 .478-.431l-.228-1.073a8.9 8.9 0 0 0 5.442-8.219zm-8.928-.372a.373.373 0 1 1-.001.745.373.373 0 0 1 .001-.745zm1.226 8.671 1.274-1.136.352 1.657-1.626-.52z"/><path fill="#2196f3" style="fill:var(--color2, #2196f3)" d="M35.623 8.525v.744a.371.371 0 1 0 .744 0v-.744a.373.373 0 0 0-.744 0zM28.928 15.22a.372.372 0 1 0 0 .744h.744a.372.372 0 1 0 0-.744h-.744zM43.063 15.964a.372.372 0 1 0 0-.744h-.744a.372.372 0 1 0 0 .744h.744z"/></symbol><symbol id="icon-Group-1" viewBox="0 0 72 32"><path fill="#f5f4fa" style="fill:var(--color1, #f5f4fa)" d="M1.067 0h69.867c.589 0 1.067.478 1.067 1.067v29.867c0 .589-.478 1.067-1.067 1.067H1.067A1.067 1.067 0 0 1 0 30.934V1.067C0 .478.478 0 1.067 0z"/><path fill="#212121" style="fill:var(--color3, #212121)" d="m44.618 19.557-4.925-4.961.547-2.692c.141.055.291.084.442.085h.004a1.26 1.26 0 1 0-1.172-.837l-2.893.353-4.719-4.744a.309.309 0 0 0-.438-.002l-.882.877a.31.31 0 0 0 0 .44l.475.482a8.716 8.716 0 0 0 1.47 10.303.302.302 0 0 0 .085.057c-.02.105-.03.212-.03.319v3.609h-3.733a1.558 1.558 0 0 0-1.556 1.556v.622a.31.31 0 0 0 .311.311h14.311a.31.31 0 0 0 .311-.311v-.622a1.558 1.558 0 0 0-1.555-1.556h-3.733v-1.599a8.785 8.785 0 0 0 1.778.187 8.673 8.673 0 0 0 4.107-1.04l.477.48a.309.309 0 0 0 .438.002l.882-.877a.31.31 0 0 0 0-.44zm-4.371-9.254a.623.623 0 1 1 .439 1.063h-.002a.623.623 0 0 1-.436-1.063h-.001zm-.733 2.044-.349 1.718-.686-.69 1.035-1.029zm-.353-.526-1.12 1.113-.866-.871 1.986-.242zm1.508 11.646c.515 0 .933.418.933.933v.311H27.913V24.4c0-.515.418-.933.933-.933h11.822zm-4.355-1.245v.622h-3.111v-.622h3.111zm-3.112-.622v-2.364c0-.755.698-1.369 1.555-1.369s1.556.614 1.556 1.369V21.6h-3.111zm3.734-.989v-1.375c0-1.098-.977-1.991-2.178-1.991a2.217 2.217 0 0 0-1.914 1.042 8.09 8.09 0 0 1-1.329-9.268l10.851 10.913a8.068 8.068 0 0 1-5.43.679zm6.585-.399L31.238 7.857l.44-.439 4.629 4.655c.002 0 .003.004.006.006l7.65 7.695-.441.439z"/><path fill="#2196f3" style="fill:var(--color2, #2196f3)" d="M34.761 18.489h-.003a.934.934 0 0 0-.003 1.867h.003a.934.934 0 0 0 .003-1.867zm.217 1.154a.31.31 0 1 1-.438-.441.314.314 0 0 1 .218-.091.312.312 0 0 1 .218.532h.003z"/></symbol><symbol id="icon-telfono-inteligente" viewBox="0 0 20 32"><path fill="#757575" style="fill:var(--color4, #757575)" d="M17 0H3C1.346 0 0 1.346 0 3v26c0 1.654 1.346 3 3 3h14c1.654 0 3-1.346 3-3V3c0-1.654-1.346-3-3-3zM3 2h14a1 1 0 0 1 1 1v21H2V3a1 1 0 0 1 1-1zm14 28H3a1 1 0 0 1-1-1v-3h16v3a1 1 0 0 1-1 1z"/><path fill="#757575" style="fill:var(--color4, #757575)" d="M4.708 27.478a.889.889 0 0 1 .001 1.319l-.001.001a1.048 1.048 0 0 1-1.417 0l.001.001a.889.889 0 0 1-.001-1.319l.001-.001a1.048 1.048 0 0 1 1.417 0l-.001-.001z"/></symbol><symbol id="icon-sobre" viewBox="0 0 43 32"><path fill="#757575" style="fill:var(--color4, #757575)" d="M38.667 0H4C1.795 0 0 1.795 0 4v24c0 2.205 1.795 4 4 4h34.667c2.205 0 4-1.795 4-4V4c0-2.205-1.795-4-4-4zm0 2.667c.181 0 .355.037.512.104L21.334 18.238 3.489 2.771c.151-.065.327-.104.512-.104h34.667zm0 26.666H4A1.333 1.333 0 0 1 2.667 28V5.587l17.792 15.421c.233.203.539.327.875.327s.642-.124.876-.328l-.002.001L40 5.587V28c0 .736-.597 1.333-1.333 1.333z"/></symbol><symbol id="icon-Cliente-6" viewBox="0 0 67 32"><path fill="#afb1b8" style="fill:var(--color5, #afb1b8)" d="M33.748 16.393a1.152 1.152 0 0 1-.238-.789v.004-1.139c0-.349.079-.614.238-.796s.43-.272.816-.271c.362 0 .62.077.772.232a.94.94 0 0 1 .228.681v.268h-.648v-.271a1.39 1.39 0 0 0-.019-.265.258.258 0 0 0-.092-.157h-.001a.372.372 0 0 0-.207-.063l-.029.001h.001l-.028-.001a.397.397 0 0 0-.221.067l.001-.001a.3.3 0 0 0-.107.172v.002a1.316 1.316 0 0 0-.026.26v.023-.001 1.383a.715.715 0 0 0 .083.388.3.3 0 0 0 .127.093l.002.001a.353.353 0 0 0 .167.022.352.352 0 0 0 .23-.063l-.001.001c.05-.042.085-.1.097-.166v-.002c.013-.075.02-.161.02-.249v-.03.001-.28h.648v.256l.002.068c0 .246-.085.472-.228.651l.002-.002c-.149.169-.403.254-.776.254s-.655-.09-.815-.278zm2.699.012c-.164-.178-.246-.436-.246-.777V14.43c0-.339.082-.595.246-.768s.437-.26.821-.26c.381 0 .653.087.817.26.164.174.247.43.247.768v1.198c0 .339-.083.598-.25.777s-.437.267-.815.267-.656-.09-.822-.266zm1.123-.288a.67.67 0 0 0 .078-.354v-1.467l.001-.04a.657.657 0 0 0-.079-.312l.002.003a.316.316 0 0 0-.13-.095l-.002-.001a.346.346 0 0 0-.173-.02h.002a.35.35 0 0 0-.174.021l.002-.001a.307.307 0 0 0-.133.095v.001a.636.636 0 0 0-.078.348v1.474a.662.662 0 0 0 .078.355.447.447 0 0 0 .474.086l-.003.001a.414.414 0 0 0 .137-.088v-.007zm1.543-2.681h.698l.525 2.211.537-2.21h.679l.069 3.191h-.502l-.054-2.217-.518 2.217h-.403l-.537-2.226-.05 2.226h-.507l.063-3.191zm3.289 0h1.087c.626 0 .939.302.939.906 0 .578-.33.868-.989.867h-.37v1.418h-.671l.004-3.191zm.929 1.364c.066.008.134.002.198-.015s.122-.046.171-.085a.518.518 0 0 0 .097-.36l.001-.035a.986.986 0 0 0-.035-.262l.002.007a.257.257 0 0 0-.133-.151l-.002-.001a.683.683 0 0 0-.264-.052l-.037.001h.002-.26v.954h.26zm2.065-1.364h.721l.74 3.191h-.626l-.146-.736h-.643l-.151.736h-.634l.739-3.191zm.616 2.086-.251-1.339-.251 1.339h.502zm1.442-2.086h.47l.899 1.82v-1.82h.557v3.191h-.447l-.905-1.9v1.9h-.576l.001-3.191zm3.23 1.975-.747-1.97h.63l.456 1.265.428-1.265h.616l-.738 1.97v1.217h-.644v-1.217zm-15.9 2.611v.167h-.548v1.297h-.23v-1.297h-.55v-.167h1.327zm1.717 1.464h-.182a.077.077 0 0 1-.045-.014.077.077 0 0 1-.029-.033l-.158-.348h-.76l-.158.348a.096.096 0 0 1-.024.039.08.08 0 0 1-.046.014h-.181l.671-1.463h.234l.679 1.458zm-1.111-.544h.633l-.269-.596a.89.89 0 0 1-.047-.13l-.002-.008-.025.078-.025.061-.265.595zm2.268.4a.77.77 0 0 0 .233-.018c.033-.007.065-.016.097-.026l.09-.036v-.329h-.27a.05.05 0 0 1-.034-.012.03.03 0 0 1-.01-.012.028.028 0 0 1-.003-.013v-.114h.521v.561a.991.991 0 0 1-.276.118l-.007.002c-.055.014-.111.024-.168.03s-.125.009-.192.009h-.012c-.118 0-.232-.02-.337-.057l.007.002a.834.834 0 0 1-.27-.154l.001.001a.709.709 0 0 1-.171-.228l-.002-.004a.723.723 0 0 1-.062-.294v-.019c0-.107.022-.209.062-.302l-.002.005a.67.67 0 0 1 .173-.232.827.827 0 0 1 .269-.152c.115-.038.237-.056.359-.055.062 0 .125.004.186.013.055.008.108.02.16.037a.764.764 0 0 1 .134.058c.041.023.08.048.117.076l-.064.09a.067.067 0 0 1-.021.02.065.065 0 0 1-.031.008.086.086 0 0 1-.042-.012.744.744 0 0 1-.07-.037l.004.002a.57.57 0 0 0-.086-.038l-.004-.001a.837.837 0 0 0-.118-.032l-.005-.001a1 1 0 0 0-.161-.013h-.017a.81.81 0 0 0-.257.042l.006-.002a.512.512 0 0 0-.321.294l-.001.003a.68.68 0 0 0 .002.493l-.002-.005a.576.576 0 0 0 .33.3.77.77 0 0 0 .266.029zm2.139-.023h.733v.167h-.957v-1.464h.23l-.006 1.297zm1.495.167h-.23v-1.464h.23v1.464zm.854-1.457a.106.106 0 0 1 .035.027l.981 1.103-.001-.026.001-.027v.001-1.09h.2v1.47H43.24a.104.104 0 0 1-.043-.009h.001a.125.125 0 0 1-.036-.028l-.98-1.102v1.138h-.192v-1.464h.119c.013 0 .026.003.038.007zm2.905-.007v.161h-.813v.483h.659v.155h-.659v.499h.813v.161h-1.049v-1.46h1.049zM21.002 8.985l10.191 2.498v8.754L21.002 17.74V8.984zm-.654-.746v9.926l11.496 2.819v-9.925l-11.496-2.82z"/><path fill="#afb1b8" style="fill:var(--color5, #afb1b8)" d="M26.51 25.592 15.012 22.77v-9.925l11.498 2.82v9.926z"/><path fill="#afb1b8" style="fill:var(--color5, #afb1b8)" d="m20.539 8.872 10.057 2.467-4.277 3.694-10.059-2.468 4.279-3.693zm-.191-.633-5.336 4.606 11.498 2.821 5.335-4.607-11.496-2.82zm6.809 16.794 4.688-4.049-4.688-1.15v5.199z"/></symbol><symbol id="icon-Cliente-5" viewBox="0 0 67 32"><path fill="#afb1b8" style="fill:var(--color5, #afb1b8)" d="M23.213 23.238a.571.571 0 0 1 .145.386l.001.029a.556.556 0 0 1-.054.241l.001-.003a.625.625 0 0 1-.172.22l-.001.001a1.028 1.028 0 0 1-.655.178h.003-1.147v-2.445h1.124l.066-.002c.207 0 .399.061.56.167l-.004-.002c.073.056.13.126.168.205s.055.166.05.253a.544.544 0 0 1-.13.374.624.624 0 0 1-.342.191c.152.025.29.1.387.209zm-1.346-.369h.48a.493.493 0 0 0 .305-.081.285.285 0 0 0 .081-.107l.001-.002a.266.266 0 0 0 .022-.107l-.001-.024v.001l.001-.021a.272.272 0 0 0-.023-.111l.001.002a.303.303 0 0 0-.08-.109.49.49 0 0 0-.316-.082h.002-.473v.642zm.833.938a.325.325 0 0 0 .088-.11l.001-.002a.279.279 0 0 0 .026-.117l-.001-.02v.001l.001-.018a.29.29 0 0 0-.027-.122l.001.002a.318.318 0 0 0-.089-.112h-.001a.526.526 0 0 0-.294-.089l-.034.001h.002-.504v.673h.51a.54.54 0 0 0 .322-.085zm2.809.483-.625-.956h-.235v.956h-.538v-2.446h1.018c.022-.002.047-.002.072-.002.24 0 .461.079.639.213l-.003-.002a.753.753 0 0 1 .244.544.735.735 0 0 1-.169.469l.001-.001a.845.845 0 0 1-.481.248l-.005.001.666.977h-.585zm-.86-1.29h.44c.305 0 .458-.123.458-.37l.001-.02a.34.34 0 0 0-.026-.131l.001.002a.355.355 0 0 0-.087-.126.504.504 0 0 0-.303-.101l-.045.002h.002-.445l.005.744zm3.799.798h-1.071l-.189.492h-.564l.984-2.419h.61l.98 2.419h-.563l-.185-.492zm-.143-.371-.392-1.032-.392 1.032h.783zm3.822.863h-.533l-1.197-1.663v1.663h-.533v-2.446h.533l1.197 1.673v-1.673h.533v2.446zm3.047-.586a1.119 1.119 0 0 1-.483.431 1.663 1.663 0 0 1-.707.155l-.046-.001h.002-.95v-2.446h.95l.044-.001c.256 0 .499.056.718.155l-.011-.004c.204.095.373.243.483.427a1.325 1.325 0 0 1 0 1.284zm-.611-.058a.853.853 0 0 0 .236-.584.856.856 0 0 0-.236-.584.975.975 0 0 0-.607-.21l-.064.002h.003-.371v1.583h.371l.061.002a.98.98 0 0 0 .609-.211l-.002.002zm-5.78-15.407s6.889 2.381 6.743 5.827v5.83s-6.884-2.383-6.741-5.829l-.002-5.828zm12.88 10.291a9.998 9.998 0 0 1 4.377-1.477v-1.824c-1.81.639-3.346 1.797-4.377 3.302z"/><path fill="#afb1b8" style="fill:var(--color5, #afb1b8)" d="M40.882 19.08c1.065-1.963 2.911-3.479 5.159-4.233V9.59s-9.811 3.392-9.604 8.299v8.299s.437-.152 1.125-.436c0-.265 0-.533.032-.802.203-2.278 1.385-4.389 3.288-5.869z"/><path fill="#afb1b8" style="fill:var(--color5, #afb1b8)" d="M39.949 22.163a7.856 7.856 0 0 1 .343-1.699c-1.185 1.278-1.903 2.864-2.052 4.535a6.236 6.236 0 0 0-.026.478 27.584 27.584 0 0 0 2.045-.988l-.158.077a7.894 7.894 0 0 1-.153-2.403zm.39.03a7.569 7.569 0 0 0 .13 2.225l-.009-.049c2.681-1.469 5.692-3.738 5.576-6.48v-.239c-1.915.196-3.707.963-5.1 2.182a7.444 7.444 0 0 0-.596 2.332l-.002.029z"/></symbol><symbol id="icon-Cliente-4" viewBox="0 0 67 32"><path fill="#2196f3" style="fill:var(--color2, #2196f3)" d="M22.181 13.902h-.001c-.947 0-1.715.682-1.715 1.524v.001c0 .842.768 1.525 1.715 1.525h.001c.947 0 1.715-.683 1.715-1.525v-.001c0-.841-.768-1.524-1.715-1.524zm12.661-.487c-.003-1.169-.527-2.29-1.457-3.117s-2.191-1.293-3.507-1.295c-1.316.002-2.578.468-3.509 1.295s-1.455 1.948-1.458 3.118v6.449s9.929-.983 9.931-6.447v-.001zM16.988 21.98c.002.814.367 1.594 1.015 2.169s1.525.9 2.44.902c.915-.002 1.792-.327 2.44-.902s1.012-1.355 1.015-2.168v-4.487s-6.909.685-6.909 4.486zm3.454.804a.983.983 0 0 1-.503-.136.835.835 0 0 1-.331-.356l-.002-.005a.717.717 0 0 1-.051-.469l-.001.005c.035-.156.121-.299.247-.412s.288-.189.463-.22a1.009 1.009 0 0 1 .53.047l-.007-.002c.165.061.307.164.406.296s.152.288.152.446v.002a.72.72 0 0 1-.07.311l.002-.004a.812.812 0 0 1-.195.261l-.001.001a.98.98 0 0 1-.639.236h-.002v-.003zm6.316-1.44v1.685h-.347v-1.685h.348zm.671.721v.271h-.766v-.271h.766zm.081-.721v.272h-.847v-.272h.847zm1.586.804v.08c0 .128-.017.243-.052.345a.761.761 0 0 1-.148.261l.001-.001a.637.637 0 0 1-.227.163.707.707 0 0 1-.28.057h-.011.001a.744.744 0 0 1-.291-.056.643.643 0 0 1-.226-.163l-.001-.001a.772.772 0 0 1-.148-.255l-.002-.005a1.046 1.046 0 0 1-.052-.329v-.016.001-.08c0-.129.017-.244.052-.345s.084-.188.147-.26a.645.645 0 0 1 .227-.164c.088-.038.185-.056.291-.056s.203.019.29.056c.088.038.164.093.227.164s.113.159.148.261c.036.101.053.216.053.345zm-.351.08v-.082c0-.09-.008-.168-.024-.236a.497.497 0 0 0-.073-.173l.001.002a.305.305 0 0 0-.114-.103l-.002-.001a.323.323 0 0 0-.15-.036h-.006a.327.327 0 0 0-.156.036.323.323 0 0 0-.114.103l-.001.001a.524.524 0 0 0-.07.168l-.001.004a.976.976 0 0 0-.025.223v.014-.001.082c0 .088.008.167.024.236s.04.126.072.173c.032.046.07.081.116.105s.098.036.156.036a.33.33 0 0 0 .156-.036.318.318 0 0 0 .114-.104l.001-.001c.031-.047.055-.105.071-.173s.024-.147.024-.236zm1.478.361v-.004a.23.23 0 0 0-.014-.079v.002a.15.15 0 0 0-.049-.067.422.422 0 0 0-.098-.06l-.003-.001a1.346 1.346 0 0 0-.158-.06l-.01-.003a2.125 2.125 0 0 1-.231-.088l.013.005a.913.913 0 0 1-.183-.109l.002.002a.497.497 0 0 1-.121-.142l-.001-.002a.393.393 0 0 1-.044-.183v-.009a.405.405 0 0 1 .176-.339.603.603 0 0 1 .197-.096.87.87 0 0 1 .251-.034c.124 0 .233.022.325.067s.164.106.215.184a.47.47 0 0 1 .078.267h-.345v-.005a.268.268 0 0 0-.032-.126l.001.001a.217.217 0 0 0-.091-.089l-.001-.001a.333.333 0 0 0-.142-.032h-.013.001-.012c-.05 0-.098.01-.141.029l.002-.001a.2.2 0 0 0-.09.072v.001a.175.175 0 0 0-.03.099v.003a.15.15 0 0 0 .021.078.23.23 0 0 0 .064.064l.001.001c.028.02.063.04.105.057s.09.035.145.052c.092.028.172.059.242.094a.759.759 0 0 1 .177.118l-.001-.001a.434.434 0 0 1 .143.333v.016a.404.404 0 0 1-.166.327l-.001.001c-.054.04-.119.071-.193.091a.961.961 0 0 1-.504-.002l.007.002a.74.74 0 0 1-.224-.102l.003.002a.514.514 0 0 1-.156-.169l-.001-.003a.488.488 0 0 1-.059-.247h.348c0 .053.008.097.024.133a.235.235 0 0 0 .067.088c.03.022.066.039.105.048h.002a.58.58 0 0 0 .137.015h.012a.359.359 0 0 0 .139-.027l-.003.001a.184.184 0 0 0 .116-.17v-.002zm1.336-1.245v1.685h-.346v-1.685h.346zm.519 0v.272h-1.375v-.272h1.375zm1.329 1.415v.271h-.897v-.271h.897zm-.784-1.415v1.685h-.348v-1.685h.348zm.667.687v.264h-.78v-.264h.78zm.116-.687v.272h-.896v-.272h.896zm.203 0h.628c.129 0 .24.02.333.058s.165.096.215.171c.05.076.075.169.075.279 0 .09-.015.168-.046.232s-.074.118-.127.16l-.001.001a.685.685 0 0 1-.189.101l-.005.001-.11.058h-.546l-.002-.271h.418a.322.322 0 0 0 .142-.033l-.002.001a.21.21 0 0 0 .09-.089l.001-.001a.27.27 0 0 0 .031-.128v-.014a.303.303 0 0 0-.031-.134l.001.002a.211.211 0 0 0-.09-.09l-.001-.001a.334.334 0 0 0-.143-.032H33.958v1.414h-.348v-1.685zm.943 1.686-.384-.751.367-.002.389.737v.016h-.371zm1.823-.601h-.429v-.271h.443a.34.34 0 0 0 .15-.034l-.002.001a.21.21 0 0 0 .091-.091l.001-.001a.335.335 0 0 0-.001-.276l.001.002a.235.235 0 0 0-.09-.104l-.001-.001a.296.296 0 0 0-.149-.04h-.014.001-.309v1.414h-.348v-1.685h.657c.132 0 .245.024.339.072s.167.112.218.196.075.179.075.286c0 .109-.025.203-.075.282s-.122.141-.217.184a.812.812 0 0 1-.34.065zm2.002.33v.271h-.897v-.271h.897zm-.784-1.415v1.685h-.347v-1.685h.347zm.667.687v.264h-.78v-.264h.78zm.116-.687v.272h-.896v-.272h.896zm.98 0v1.685h-.346v-1.685h.346zm.518 0v.272h-1.375v-.272h1.375zm1.329 1.415v.271h-.897v-.271h.897zm-.783-1.415v1.685h-.347v-1.685h.347zm.666.687v.264h-.78v-.264h.78zm.116-.687v.272h-.896v-.272h.896zm.204 0h.629c.129 0 .24.02.332.058s.165.096.215.171c.05.076.075.169.075.279 0 .09-.015.168-.046.232s-.074.118-.127.16l-.001.001a.68.68 0 0 1-.188.101l-.005.001-.11.058h-.546l-.002-.271H42.049a.322.322 0 0 0 .142-.033l-.002.001a.215.215 0 0 0 .09-.089l.001-.001a.27.27 0 0 0 .031-.128v-.015a.303.303 0 0 0-.031-.134l.001.002a.211.211 0 0 0-.09-.09l-.001-.001a.334.334 0 0 0-.143-.032H41.755v1.414h-.347v-1.685zm.942 1.686-.384-.751.367-.002.389.737v.016h-.371zm1.454-.441v-.003a.236.236 0 0 0-.014-.08l.001.002a.156.156 0 0 0-.048-.067.422.422 0 0 0-.098-.06l-.003-.001a1.346 1.346 0 0 0-.158-.06l-.01-.003a1.937 1.937 0 0 1-.231-.088l.013.005a.913.913 0 0 1-.183-.109l.002.002a.5.5 0 0 1-.122-.142l-.001-.002a.392.392 0 0 1-.044-.182v-.015c0-.068.017-.132.047-.188l-.001.002c.031-.058.074-.107.13-.148s.122-.074.193-.095l.004-.001a.866.866 0 0 1 .251-.034c.124 0 .233.022.326.067s.164.106.215.184a.47.47 0 0 1 .078.267h-.345v-.005a.268.268 0 0 0-.032-.126l.001.001a.214.214 0 0 0-.092-.089l-.001-.001a.33.33 0 0 0-.142-.032h-.014.001-.012c-.05 0-.098.01-.141.029l.002-.001a.2.2 0 0 0-.09.072v.001a.175.175 0 0 0-.03.099v.003a.15.15 0 0 0 .021.078.23.23 0 0 0 .064.064l.001.001c.028.02.064.04.105.057s.09.035.145.052c.092.028.172.059.242.094s.129.074.176.117a.434.434 0 0 1 .143.333.407.407 0 0 1-.167.344c-.054.04-.119.071-.193.091a.967.967 0 0 1-.504-.002l.007.002a.74.74 0 0 1-.224-.102l.003.002a.504.504 0 0 1-.156-.169l-.001-.003a.499.499 0 0 1-.059-.247h.348c0 .053.008.097.025.133s.039.065.068.088h.001c.03.022.066.039.104.048h.002c.042.01.087.015.137.015h.012a.359.359 0 0 0 .139-.027l-.002.001a.183.183 0 0 0 .116-.169v-.003z"/></symbol><symbol id="icon-Cliente-3" viewBox="0 0 67 32"><path fill="#afb1b8" style="fill:var(--color5, #afb1b8)" d="M27.025 24.963c.013 0 .025.005.034.013l.086.082a.7.7 0 0 1-.243.156.93.93 0 0 1-.344.056.905.905 0 0 1-.323-.053.675.675 0 0 1-.4-.372l-.002-.004a.746.746 0 0 1-.055-.285v-.024a.68.68 0 0 1 .226-.507l.001-.001a.796.796 0 0 1 .258-.149 1.01 1.01 0 0 1 .333-.053h.021c.103 0 .202.017.295.05l-.006-.002a.842.842 0 0 1 .232.132l-.072.088a.069.069 0 0 1-.018.016.052.052 0 0 1-.025.007h-.004a.066.066 0 0 1-.032-.009l-.038-.024-.054-.03a.609.609 0 0 0-.166-.052h-.003a.734.734 0 0 0-.119-.01H26.589a.71.71 0 0 0-.236.041l.005-.002a.512.512 0 0 0-.309.287.592.592 0 0 0-.044.224v.009c-.002.08.013.16.044.236a.501.501 0 0 0 .299.284c.07.025.146.038.222.038a.974.974 0 0 0 .132-.008.512.512 0 0 0 .285-.122l-.001.001a.064.064 0 0 1 .041-.015zm2.488-.414a.705.705 0 0 1-.058.292.626.626 0 0 1-.161.225l-.001.001a.747.747 0 0 1-.25.147l-.005.002a1.035 1.035 0 0 1-.663-.003l.007.002a.764.764 0 0 1-.254-.149l.001.001a.667.667 0 0 1-.162-.224l-.002-.004a.754.754 0 0 1 .002-.589l-.002.005a.677.677 0 0 1 .164-.229.742.742 0 0 1 .253-.143 1.028 1.028 0 0 1 .663.003l-.007-.002a.767.767 0 0 1 .254.149.66.66 0 0 1 .162.226.71.71 0 0 1 .058.293zm-.226 0v-.012a.606.606 0 0 0-.043-.226l.001.004a.485.485 0 0 0-.294-.285l-.003-.001a.752.752 0 0 0-.481.002l.005-.002a.51.51 0 0 0-.182.111.47.47 0 0 0-.115.172l-.001.003a.676.676 0 0 0 .002.473l-.002-.005c.052.135.16.238.295.283l.003.001c.153.05.322.05.476 0a.484.484 0 0 0 .297-.284.605.605 0 0 0 .041-.234zm1.923.246.023.052a.869.869 0 0 1 .052-.103l.55-.87c.011-.015.021-.024.032-.027s.024-.005.038-.005h.17v1.414h-.193v-1.084l-.001-.024.001-.026v.001l-.554.882a.082.082 0 0 1-.032.032.098.098 0 0 1-.046.012h-.033a.094.094 0 0 1-.047-.012.07.07 0 0 1-.032-.032l-.57-.887v1.135h-.186v-1.411h.169a.16.16 0 0 1 .039.005h-.001a.061.061 0 0 1 .03.027l.562.87a.253.253 0 0 1 .028.051zm2.072-.07v.529h-.215v-1.412h.48c.091-.002.181.009.268.031.07.017.134.047.19.088a.375.375 0 0 1 .107.136l.001.002a.423.423 0 0 1 .037.181v.009a.39.39 0 0 1-.155.312l-.001.001a.568.568 0 0 1-.191.094.88.88 0 0 1-.242.033h-.019.001l-.261-.004zm0-.152h.261a.622.622 0 0 0 .167-.021.373.373 0 0 0 .121-.061l-.001.001a.269.269 0 0 0 .099-.209v-.003l.001-.015a.244.244 0 0 0-.022-.101l.001.001a.263.263 0 0 0-.075-.096h-.001a.463.463 0 0 0-.292-.076h.002-.261v.582zm2.895.683H36.004a.077.077 0 0 1-.045-.014.079.079 0 0 1-.028-.032l-.146-.341h-.736l-.152.341a.081.081 0 0 1-.073.046H34.651l.646-1.414h.224l.655 1.414zm-1.067-.525h.608l-.257-.575a.919.919 0 0 1-.048-.133l-.025.074a.622.622 0 0 1-.024.06l-.254.574zm1.998-.882a.09.09 0 0 1 .032.025l.942 1.066v-1.098h.193v1.414h-.109a.099.099 0 0 1-.042-.009h.001a.128.128 0 0 1-.034-.026l-.941-1.065.001.024-.001.025v-.001 1.051h-.193v-1.414h.115c.014 0 .026.003.038.007h-.001zm2.755.845v.561h-.215v-.561l-.596-.852h.198c.015 0 .03.004.042.012a.11.11 0 0 1 .029.032l.373.55c.015.024.028.045.039.066s.02.04.027.06l.028-.06a.575.575 0 0 1 .037-.066l-.001.002.367-.553a.133.133 0 0 1 .028-.03.071.071 0 0 1 .043-.014h.199l-.597.855zm-8.759-3.225c.094.01.189.019.284.026 1.454-.565 2.683-1.489 3.535-2.658s1.288-2.53 1.255-3.913l-1.602-1.391c.326 1.472.173 2.995-.44 4.396s-1.663 2.627-3.033 3.54z"/><path fill="#afb1b8" style="fill:var(--color5, #afb1b8)" d="m30.532 21.404.043.007c1.463-.909 2.579-2.179 3.202-3.645s.727-3.061.296-4.579l-2.281-1.982c.922 1.629 1.294 3.453 1.071 5.258s-1.031 3.518-2.331 4.94zm7.737-4.845c-.388 1.519-1.329 2.89-2.684 3.908-.37.282-.788.546-1.228.773l-.048.022c1.104-.282 2.118-.78 2.965-1.456s1.504-1.513 1.92-2.444l-.925-.803z"/><path fill="#afb1b8" style="fill:var(--color5, #afb1b8)" d="m37.906 16.335-1.318-1.145c-.025 1.305-.452 2.58-1.237 3.693s-1.898 2.023-3.224 2.636h.006c.295 0 .591-.016.884-.046 1.24-.44 2.334-1.139 3.187-2.036s1.436-1.963 1.7-3.103zm-7.184-5.965L29.15 9.003c-1.405.472-2.613 1.301-3.467 2.379s-1.312 2.355-1.317 3.664c.005 1.446.565 2.849 1.592 3.987s2.46 1.946 4.075 2.297c1.441-1.526 2.285-3.411 2.409-5.382s-.479-3.925-1.721-5.578zm10.815 5.754c-.006-1.715-.792-3.359-2.189-4.572s-3.288-1.897-5.263-1.901a8.358 8.358 0 0 0-2.668.431l9.622 8.359a5.575 5.575 0 0 0 .498-2.317z"/></symbol><symbol id="icon-Cliente-2" viewBox="0 0 67 32"><path fill="#afb1b8" style="fill:var(--color5, #afb1b8)" d="M32.44 7.91h-.054a7.374 7.374 0 0 0-.243-.009h-.186c-.157 0-.317.004-.476.012l-.018-.001-.019.001h.001c-1.525.089-2.941.47-4.221 1.089l.067-.029-.171.082v8.747l.4-.136c.351-.12.725-.229 1.111-.329.956-.256 2.055-.41 3.189-.425h.009v1.149a9.676 9.676 0 0 0-.421.012h-.033c-.898.05-1.739.185-2.549.398l.089-.02a12.454 12.454 0 0 0-2.996 1.175l.064-.033V8.374c.885-.526 1.91-.955 2.994-1.233l.081-.018c.869-.234 1.867-.37 2.896-.374h.171c.202.005.399.014.584.028.487.034.97.111 1.444.23v1.131a8.522 8.522 0 0 0-1.4-.212l-.028-.002c-.098-.008-.195-.017-.286-.017zm1.991 1.156c.251.019.51.028.774.028a12.442 12.442 0 0 0 3.134-.411l-.087.019a12.49 12.49 0 0 0 2.995-1.176l-.065.033v11.018c-.886.526-1.91.955-2.994 1.233l-.082.018c-.869.233-1.867.369-2.896.373H35.137c-.756 0-1.49-.095-2.19-.273l.061.013V8.852a9.123 9.123 0 0 0 1.423.212zm5.607.085-.4.135a17.67 17.67 0 0 1-1.111.333c-.995.266-2.139.422-3.318.426h-.003c-.261 0-.501-.007-.732-.022l-.319-.021V19l.274.024c.254.023.516.034.779.034a10.623 10.623 0 0 0 2.689-.355l-.074.017a10.938 10.938 0 0 0 2.109-.763l-.065.029.171-.082v-8.75zM26.76 23.427a.588.588 0 0 0-.424-.18h-.021.001-.009a.667.667 0 0 0-.253.05l.004-.002a.578.578 0 0 0-.327.329l-.001.004a.639.639 0 0 0-.046.248V25.399c0 .103.022.2.061.288l-.002-.005a.538.538 0 0 0 .355.308c.073.02.149.031.224.031a.632.632 0 0 0 .621-.631v-.168h-.392V25.365a.338.338 0 0 1-.024.127l.001-.002a.236.236 0 0 1-.057.084.274.274 0 0 1-.164.057l-.023.001a.201.201 0 0 1-.161-.081v-.001a.351.351 0 0 1-.052-.186v-.016.001-1.398a.484.484 0 0 1 .048-.224.2.2 0 0 1 .192-.091h-.001.007c.069 0 .129.033.167.084v.001c.041.053.065.12.065.193v.139h.388v-.16a.72.72 0 0 0-.049-.26l.002.005a.622.622 0 0 0-.131-.211zm2.328-.017a.689.689 0 0 0-.445-.165.691.691 0 0 0-.234.042.616.616 0 0 0-.357.329l-.002.004a.686.686 0 0 0-.057.29v1.437a.707.707 0 0 0 .057.294.588.588 0 0 0 .152.201.67.67 0 0 0 .887-.001l-.001.001a.624.624 0 0 0 .205-.495V23.896c0-.1-.021-.195-.059-.281l.002.005a.661.661 0 0 0-.147-.21zm-.183 1.938.001.022c0 .073-.03.139-.079.186-.049.042-.114.067-.184.067s-.135-.025-.185-.068a.254.254 0 0 1-.079-.185l.001-.024v.001-1.438l-.001-.022c0-.073.03-.139.079-.186.049-.042.114-.067.184-.067s.135.025.185.068a.257.257 0 0 1 .079.186l-.001.023v-.001 1.438zm3.24.642v-2.721h-.377l-.495 1.44h-.007l-.499-1.44h-.373v2.721h.389v-1.655h.007l.381 1.17h.194l.384-1.17h.007v1.655h.389zm2.209-2.531a.552.552 0 0 0-.22-.149.833.833 0 0 0-.266-.042h-.594v2.721h.388v-1.063h.2a.709.709 0 0 0 .35-.074.574.574 0 0 0 .212-.206l.001-.003a.649.649 0 0 0 .089-.237 1.99 1.99 0 0 0 .021-.309 1.547 1.547 0 0 0-.038-.389.576.576 0 0 0-.143-.25zm-.2.83a.345.345 0 0 1-.037.144l.001-.002a.222.222 0 0 1-.099.095l-.001.001a.393.393 0 0 1-.163.035l-.021-.001h.001-.177v-.925h.219c.057 0 .11.013.159.035l-.002-.001c.04.023.071.058.09.099l.001.001a.391.391 0 0 1 .034.151v.181c0 .063.004.129 0 .187h-.004zm2.037-1.021h-.318l-.6 2.721h.388l.114-.585h.529l.114.585h.388l-.614-2.721zm-.358 1.766.191-.986h.007l.19.986h-.388zm2.863-.126h-.007l-.585-1.64h-.373v2.721h.388v-1.636h.008l.593 1.636h.365v-2.721h-.388v1.639zm2.37-1.64-.312 1.082h-.008l-.312-1.082h-.411l.533 1.571v1.15h.388v-1.15l.533-1.571h-.41z"/></symbol><symbol id="icon-linkedin" viewBox="0 0 32 32"><path fill="#afb1b8" style="fill:var(--color5, #afb1b8)" d="M31.992 32H32V20.262c0-5.741-1.237-10.163-7.947-10.163-3.227 0-5.392 1.77-6.277 3.45h-.093v-2.914h-6.365v21.363h6.627V21.42c0-2.786.528-5.48 3.978-5.48 3.398 0 3.448 3.179 3.448 5.658V32h6.621zM.528 10.635h6.635V32H.528V10.635zM3.843 0A3.843 3.843 0 0 0 0 3.843c0 2.12 1.722 3.878 3.843 3.878 2.12 0 3.842-1.757 3.842-3.878S5.965.002 3.844 0z"/></symbol><symbol id="icon-facebook" viewBox="0 0 32 32"><path fill="#afb1b8" style="fill:var(--color5, #afb1b8)" d="M21.328 5.312h2.923V.224A36.478 36.478 0 0 0 20.144 0h-.157.008c-4.213 0-7.099 2.65-7.099 7.52V12H8.25v5.688h4.646V32h5.699V17.69h4.459l.709-5.688h-5.17V8.08c0-1.643.443-2.768 2.734-2.768z"/></symbol><symbol id="icon-twitter" viewBox="0 0 32 32"><path fill="#afb1b8" style="fill:var(--color5, #afb1b8)" d="M32 6.078c-1.1.493-2.376.857-3.713 1.028l-.068.007a6.556 6.556 0 0 0 2.873-3.579l.013-.046a12.89 12.89 0 0 1-4.076 1.573l-.084.014A6.558 6.558 0 0 0 15.6 9.557v.004c0 .52.043 1.021.152 1.496-5.454-.266-10.28-2.88-13.522-6.861a6.524 6.524 0 0 0-.902 3.313v.001a6.57 6.57 0 0 0 2.914 5.451 6.453 6.453 0 0 1-2.994-.823l.033.017v.072a6.592 6.592 0 0 0 5.213 6.44l.043.008a6.403 6.403 0 0 1-1.662.215h-.061.003c-.419 0-.843-.024-1.242-.112.85 2.598 3.261 4.509 6.13 4.57a13.096 13.096 0 0 1-8.123 2.8H1.57h.001c-.538 0-1.053-.026-1.57-.091 2.827 1.846 6.287 2.944 10.004 2.944h.063-.003c12.072 0 18.672-10 18.672-18.669 0-.288-.01-.57-.024-.848a13.19 13.19 0 0 0 3.258-3.356l.03-.047z"/></symbol><symbol id="icon-instagram" viewBox="0 0 32 32"><path fill="#afb1b8" style="fill:var(--color5, #afb1b8)" d="M31.968 9.408c-.074-1.701-.349-2.869-.742-3.882a7.839 7.839 0 0 0-1.85-2.837l-.001-.001A7.906 7.906 0 0 0 26.597.861l-.054-.018C25.524.449 24.362.176 22.661.101 20.949.019 20.405 0 16.059 0c-4.344 0-4.888.019-6.595.094-1.699.074-2.869.349-3.88.742a7.847 7.847 0 0 0-2.839 1.85l-.001.001A7.9 7.9 0 0 0 .919 5.465l-.018.054C.506 6.538.232 7.7.157 9.401c-.082 1.712-.101 2.256-.101 6.602 0 4.344.019 4.888.094 6.595.075 1.701.35 2.869.744 3.882a7.915 7.915 0 0 0 1.849 2.837l.001.001c.8.813 1.77 1.443 2.832 1.843 1.019.395 2.182.67 3.882.744 1.707.075 2.251.094 6.595.094 4.346 0 4.89-.019 6.595-.094 1.701-.074 2.869-.349 3.882-.742a8.237 8.237 0 0 0 4.664-4.628l.019-.055c.394-1.019.669-2.182.744-3.882.075-1.707.093-2.251.093-6.595s-.006-4.888-.08-6.595zm-2.88 13.066c-.07 1.563-.333 2.406-.55 2.97a5.341 5.341 0 0 1-3.004 3.024l-.036.012c-.56.219-1.411.482-2.968.55-1.688.075-2.194.094-6.464.094-4.269 0-4.782-.019-6.464-.094-1.563-.069-2.406-.331-2.97-.55a4.953 4.953 0 0 1-1.836-1.192l-.001-.001a4.978 4.978 0 0 1-1.184-1.803L3.6 25.45c-.218-.563-.48-1.413-.549-2.97-.075-1.688-.094-2.195-.094-6.464 0-4.27.019-4.784.094-6.464.069-1.563.331-2.406.549-2.97a4.897 4.897 0 0 1 1.198-1.837l.002-.002a4.972 4.972 0 0 1 1.806-1.182l.034-.011c.56-.219 1.411-.48 2.968-.55 1.688-.074 2.195-.093 6.464-.093 4.275 0 4.782.019 6.464.093 1.563.069 2.406.331 2.97.55a4.91 4.91 0 0 1 1.837 1.194c.531.52.938 1.144 1.195 1.84.218.56.48 1.411.549 2.968.075 1.688.094 2.194.094 6.464 0 4.269-.019 4.768-.094 6.458z"/><path fill="#afb1b8" style="fill:var(--color5, #afb1b8)" d="M16.059 7.782a8.223 8.223 0 0 0-8.219 8.221 8.223 8.223 0 0 0 16.442.008v-.009a8.223 8.223 0 0 0-8.221-8.221zm0 13.552a5.333 5.333 0 0 1 .001-10.666h.001a5.334 5.334 0 1 1 0 10.668zM26.525 7.458a1.92 1.92 0 0 1-3.84 0 1.92 1.92 0 0 1 3.84 0z"/></symbol><symbol id="icon-Cliente-1" viewBox="0 0 67 32"><path fill="#afb1b8" style="fill:var(--color5, #afb1b8)" d="m27.654 8.331 2.769 2.621-5.139-.003v12.716h13.432v-4.862l2.765 2.618V8.331H27.654zm10.94 10.164-7.85-7.431h7.85v7.431zm-2.437 3.31h-8.748v-8.553h.618v7.973h8.13v.579zm-6.681 3.552-.323.666-.323-.666h-.271l.472.887v.517h.245v-.517l.471-.887h-.27zm.406 1.405.114-.327h.544l.115.327h.255l-.531-1.404h-.219l-.53 1.404h.254zm.385-1.106.203.582h-.407l.203-.583zm1.287.548a.315.315 0 0 0-.053.176v.002c0 .119.041.215.124.288s.195.11.333.11a.582.582 0 0 0 .359-.113l.079.094h.272l-.206-.244a.701.701 0 0 0 .122-.425h-.204c0 .095-.02.181-.058.258l-.271-.32.096-.07a.527.527 0 0 0 .145-.145l.001-.002a.307.307 0 0 0 .044-.16v-.007a.29.29 0 0 0-.098-.217.35.35 0 0 0-.237-.091h-.015.001c-.113 0-.203.032-.27.096s-.1.151-.1.261c0 .045.011.091.032.14a.87.87 0 0 0 .115.175.822.822 0 0 0-.209.194zm.634.311a.354.354 0 0 1-.221.079h-.011a.231.231 0 0 1-.157-.061.208.208 0 0 1-.063-.15v-.008c0-.075.039-.142.116-.201l.03-.021.307.362zm-.252-.622c-.066-.082-.1-.149-.1-.203 0-.047.014-.086.041-.117a.136.136 0 0 1 .103-.047h.011c.039 0 .074.015.1.04a.122.122 0 0 1 .041.094v.005a.175.175 0 0 1-.059.131l-.03.024-.107.073zm2.286.763a.51.51 0 0 0 .166-.351h-.243c-.013.1-.043.172-.092.215s-.12.065-.216.065a.271.271 0 0 1-.239-.12c-.054-.08-.081-.196-.081-.348v-.124c.002-.15.03-.263.087-.341s.139-.117.245-.117c.091 0 .16.023.207.067s.077.117.089.218h.243c-.016-.154-.07-.273-.165-.357s-.219-.126-.374-.126a.573.573 0 0 0-.305.082.537.537 0 0 0-.2.23l-.001.003a.805.805 0 0 0-.071.334v.017-.001.131c.002.129.026.243.072.341a.519.519 0 0 0 .493.305c.16 0 .288-.041.385-.125zm1.434-.197a.874.874 0 0 0 .072-.363v-.093a.852.852 0 0 0-.075-.35l.002.005a.544.544 0 0 0-.203-.236l-.002-.001c-.089-.055-.19-.083-.304-.083s-.216.028-.305.084a.546.546 0 0 0-.205.24.841.841 0 0 0-.072.345v.018-.001.079c.001.134.025.253.073.356s.118.183.207.239a.57.57 0 0 0 .305.083c.115 0 .217-.028.305-.083s.157-.136.204-.239zm-.261-.794c.059.083.089.203.089.358v.073c0 .158-.029.279-.088.361s-.141.124-.249.124h-.01a.293.293 0 0 1-.24-.126l-.001-.001a.609.609 0 0 1-.09-.358v-.081a.608.608 0 0 1 .09-.35.288.288 0 0 1 .237-.125h.011-.001c.108 0 .191.041.25.124z"/></symbol></defs></svg>